<?xml version="1.0" encoding="utf-8"?>
<!-- Generator: Adobe Illustrator 16.0.0, SVG Export Plug-In . SVG Version: 6.00 Build 0)  -->
<!DOCTYPE svg PUBLIC "-//W3C//DTD SVG 1.1//EN" "http://www.w3.org/Graphics/SVG/1.1/DTD/svg11.dtd">
<svg version="1.1" id="Layer_1" xmlns="http://www.w3.org/2000/svg" xmlns:xlink="http://www.w3.org/1999/xlink" x="0px" y="0px"
	 width="798px" height="155.329px" viewBox="0 0 798 155.329" enable-background="new 0 0 798 155.329" xml:space="preserve">
<g>
	<g>
		<path fill-rule="evenodd" clip-rule="evenodd" fill="transparent" d="M0.485,80.577c0-78.474,0-156.946,0-235.42c266,0,532,0,798,0
			c0,65.691,0,131.383,0,197.073c-1.174-0.228-1.998,0.62-2.962,0.982c-0.616-0.335-1.21-0.659-2.012-1.095
			c-1.104,0.152-2.397,0.332-3.341,0.464c-0.522,0.77-0.818,1.204-1.089,1.603c-0.742,0-1.386,0-2.011,0
			c-0.711,0.49-1.368,1.296-2.103,1.375c-1.544,0.166-2.947,0.768-4.438,1.072c-1.308,0.268-2.556,0.822-3.83,1.249
			c0.02,0.073,0.039,0.146,0.059,0.218c-1.121,0-2.242,0-3.485,0c-1.966,2.055-4.699,3.307-6.782,5.666
			c-0.807,0.551-1.814,1.239-2.524,1.723c-1.038,0.498-1.815,0.791-2.51,1.219c-1.412,0.871-2.752,1.967-4.362,2.344
			c-1.936,0.453-3.64,1.395-5.432,2.141c-1.395,0.58-2.775,1.203-4.266,1.398c-1.228,0.16-2.493-0.07-3.684,0.504
			c-1.168,0.563-2.509,0.403-3.745,0.916c-1.179,0.488-2.573,0.457-3.881,0.655c-1.322,0.707-2.674,1.379-4.267,1.356
			c-0.542-0.008-1.098-0.119-1.538,0.43c-0.13,0.162-0.673,0.16-0.921,0.031c-2.005-1.045-4.394-1.18-6.255-2.451
			c-1.387-0.947-2.937-1.621-4.242-2.664c-1.354-1.082-2.691-2.206-3.909-3.437c-1.334-1.349-2.759-2.587-4.377-3.534
			c-1.578-0.924-2.707-2.533-4.589-2.969c-0.676-1.05-1.974-1.149-2.863-1.882c-2.589-2.132-5.272-4.155-7.78-6.377
			c-2.605-2.31-5.552-4.065-8.534-5.789c-1.396-0.807-2.779-1.725-3.306-3.272c-0.298-0.873-0.924-0.939-1.231-1.139
			c-2.128-3.931-4.772-6.946-9.013-8.66c-1.771,0.101-3.518-1.205-5.415-1.396c-2.515-0.254-3.432-2.346-5.412-3.682
			c-1.269-0.086-2.822-0.195-4.375-0.297c-0.54-0.035-1.009-0.056-1.551-0.389c-0.67-0.414-1.783-0.779-2.368-0.488
			c-0.715,0.354-1.381,0.214-2.022,0.415c-1.041,0.325-2.206,0.427-2.806,1.271c-2.206-0.699-4.209-1.482-6.267-1.292
			c-1.059-0.896-2.015-1.704-2.905-2.456c-2.577,0.197-4.828-0.732-7.163-1.173c-0.45-0.085-0.916-0.293-1.347-0.236
			c-1.545,0.204-2.894-0.337-4.207-1.001c-1.141-0.576-2.188-1.369-3.371-1.82c-2.053-0.784-4.056-1.882-6.273-1.556
			c-1.992-1.42-4.071-1.046-6.171-0.769c-1.232,0.162-2.712,0.556-3.679,0.062c-1.071-0.548-1.596,0.195-2.305,0.245
			c-1.487-0.91-2.438-1.352-3.001-0.918c-0.617,0.477-1.197,0.289-1.794,0.403c-1.232,0.237-2.457,0.519-3.635,0.771
			c-0.61-0.29-1.215-0.579-1.765-0.841c-0.263,0.23-0.431,0.377-0.562,0.492c-1.113-0.927-2.176-1.861-3.299-2.717
			c-0.402-0.308-0.944-0.576-1.435-0.599c-1.725-0.077-3.366-0.73-5.141-0.546c-1.616,0.168-3.291,0.186-4.693-0.932
			c-1.332,0.289-2.126-1.235-3.481-1.001c-0.779,0.134-1.6,0.024-2.067,0.024c-1.248-0.75-2.226-1.338-3.3-1.984
			c-1.756,0.332-3.706-0.479-5.527,0.504c-0.202,0.109-0.584-0.093-0.875-0.177c-1.697-0.492-3.372-0.499-5.02,0.2
			c-2.433-1.143-4.335-1.299-5.949-0.486c-0.114-0.114-0.228-0.328-0.344-0.328c-1.998-0.021-3.996-0.016-5.985-0.016
			c-1.616,0.457-2.321,1.799-2.847,3.291c-0.355-0.553-0.678-1.056-1.083-1.688c-0.724,0.247-1.517,0.81-1.974,0.608
			c-0.795-0.351-1.383,0.094-2.059,0.08c-2.902-0.06-5.195,1.541-7.503,2.947c-0.895,0.545-1.633,1.086-2.741,1.257
			c-2.034,0.314-3.734,1.401-5.02,3.073c-0.903,0-1.806-0.111-2.67,0.025c-1.34,0.213-2.754,0.461-3.724,1.505
			c-0.802,0.862-1.849,1.038-2.846,1.362c-0.792,0.258-1.774,0.133-2.431,0.554c-1.019,0.653-1.812,0.442-2.844,0.103
			c-2.529-0.832-5.988,0.74-7.15,2.908c-1.027,0.635-1.864,1.152-2.865,1.771c-2.271-0.023-4.124,0.603-6.607,3.422
			c-1.599-0.238-2.695,0.9-4.01,1.45c-1.38,0.578-2.778,1.11-4.169,1.662c-0.097-0.133-0.194-0.268-0.292-0.4
			c-0.428,0.58-0.856,1.16-1.285,1.741c-0.058-0.103-0.115-0.206-0.172-0.309c-1.596,0.638-3.19,1.276-4.893,1.957
			c-2.32,2.276-4.527,4.878-7.57,6.4c-0.702,0.688-1.105,1.642-2.112,2.061c-1.316,0.546-2.284,1.379-3.015,2.689
			c-0.568,1.019-1.619,1.792-2.529,2.591c-0.631,0.553-1.389,0.961-2.348,1.607c-0.977,0.147-2.273,0.342-3.563,0.537
			c-0.788,0.407-1.592,0.822-2.42,1.25c-0.811,0.072-1.717,0.008-2.532,0.25c-2.658,0.789-5.261,1.77-7.93,2.516
			c-1.475,0.412-2.98,0.95-4.568,0.686c-0.67-0.111-1.316-0.395-1.986-0.461c-1.393-0.138-2.823,0.217-4.181-0.472
			c-0.386-0.196-1.111-0.228-1.411,0.008c-0.874,0.686-1.822,0.381-2.741,0.44c-0.696,0.047-1.349,0.275-2,0.411
			c-1.181,0.247-2.465,1.337-3.706,0.081c-1.127,0.238-2.133-0.31-3.196-0.484c-2.156-0.355-4.219,0.461-6.349,0.549
			c-0.895,0.037-1.76,0.781-3.03,1.393c-0.494,0-1.465,0-2.292,0c-0.627,0.344-1.143,0.627-1.513,0.83
			c-0.471-0.137-0.825-0.322-1.184-0.33c-1.455-0.035-2.912-0.015-4.368-0.015c-0.404,0-0.873,0.134-1.202-0.022
			c-1.968-0.936-4.05-1.078-6.16-0.934c-1.451,0.1-2.68-0.521-3.967-0.986c-0.934,0.482-1.865,0.968-2.926,1.519
			c-0.662,0-1.456,0-2.183,0c-0.52,0.519-0.937,1.03-1.445,1.419c-0.532,0.407-1.153,0.697-1.671,1
			c-2.421-1.117-4.483-0.594-5.809,1.36c-0.349,0.514-0.744,1.352-1.174,1.388c-1.222,0.104-2.045,0.988-3.049,1.208
			c-0.661,1.386-1.434,2.647-1.05,4.313c-0.893-0.27-1.528-0.461-2.438-0.735c-0.986-0.853-1.604-2.505-3.57-3.204
			c-0.733,0-1.861,0-2.851,0c-0.718-0.539-1.378-0.963-1.956-1.479c-1.801-1.612-4.058-2.786-4.812-5.393
			c-0.367-1.265-1.193-2.327-2.612-2.765c-0.424-0.086-0.899-0.09-1.375-0.086c-0.932,0.01-1.679-0.441-2.186-1.139
			c-1.075-1.482-2.054-3.033-2.96-4.387c-1.744-1.012-3.497-0.742-5.142-0.788c-2.364-1.769-4.592-3.709-7.989-2.698
			c-0.126,0.125-0.412,0.412-0.764,0.763c-2.267,0.017-4.79-0.515-6.403,2.188c-1.051-0.388-2.034-0.751-2.895-1.068
			c-2.799-0.631-5.13-0.041-6.469,1.986c-1.068,0.351-1.714,0.558-2.357,0.774c-1.595,0.538-1.898,2.116-2.647,3.419
			c-1.037-0.123-2.124-0.057-2.731,0.805c-0.596,0.848-1.296,1.168-2.234,1.106c-1.202-0.079-2.233,0.401-3.285,0.868
			c-0.887,0.396-1.805,1.014-2.707,1.009c-1.146-0.007-1.535,1.265-2.756,1.153c-0.645-0.06-1.38,0.854-2.1,1.347
			c-1.42,0-2.88-0.069-4.331,0.02c-1.449,0.089-2.89,0.338-3.964,0.472c-0.984-0.634-1.585-1.285-2.28-1.407
			c-1.09-0.19-2.389-0.344-3.326,0.085c-0.907,0.414-1.68,0.145-2.296,0.332c-2.15-1.148-4.031-2.455-6.355-1.868
			c-1.806-1.687-3.202-3.679-6.167-4.489c-0.728,0.104-2.02,0.287-3.078,0.437c-0.484,0.952-0.824,1.621-1.101,2.165
			c-1.118,0.77-2.111,1.386-3.015,0.438c-0.698,0.217-1.199,0.373-1.981,0.617c-0.825,0.658-1.498,1.742-1.576,3.2
			c-0.546,0-1.149-0.188-1.477,0.032c-1.425,0.959-2.614,0.319-3.857-0.35c-0.814-0.438-1.654-0.801-2.643-0.669
			c-0.63,0.084-1.281,0.016-1.955,0.016c-0.94-0.642-1.808-1.481-2.845-1.88c-1.395-0.535-2.82-1.467-4.398-0.957
			c-1.345,0.436-2.601,1.143-4.001,1.777c-0.817-0.402-0.817-0.402-3.195-0.307c-1.159,0.08-1.262,1.216-2.015,1.861
			c-2.373-0.251-4.733,0.791-7.212,0.494c-0.999-0.12-1.984,0.003-2.965,0.435c-1.021,0.45-2.155,0.644-3.291,0.965
			c-1.665-1.054-3.621-0.981-5.359-0.925c-1.409-1.273-2.883-1.832-4.531-1.943c-1.503-0.103-3.067,0.065-4.5-0.296
			c-1.518-0.384-3.046-0.167-4.59-0.57c-2.041-0.534-4.194-0.595-6.18-1.53c-0.954-0.449-2.052-0.626-3.181-0.547
			c-1.441,0.102-2.895,0.025-4.304,0.025c-0.673,0.682-1.297,1.314-1.851,1.875c-2.189,0.292-4.403-0.441-6.414,0.58
			c-0.97,0.492-1.952,0.409-2.441,0.438c-1.492,0.617-2.581,0.953-3.552,1.497c-1.585,0.888-3.091,1.917-4.638,2.873
			c-0.317,0.196-0.654,0.381-1.007,0.493c-0.712,0.229-1.441,0.403-1.979,0.549c-0.34,0.735-0.591,1.277-0.677,1.463
			c-1.4,0.729-2.514,1.338-3.652,1.896c-1.631,0.801-2.895,2.281-4.692,2.719c-1.424,0.348-2.438,1.23-3.619,2.12
			c-0.531,0-1.188-0.081-1.813,0.024c-0.579,0.098-1.124,0.395-1.671,0.6c-0.069,0.459-0.133,0.886-0.234,1.56
			c-0.59-0.88-1.018-1.517-1.432-2.134c-2.459-0.348-4.54,0.691-6.613,1.63c-2.593,1.174-5.24,2.192-7.886,3.23
			c-1.725,0.677-3.724,0.837-5.111,2.346c-0.31,0.337-0.981,0.323-1.468,0.516c-1.46,0.579-2.958,1.024-4.318,1.899
			c-1.384,0.892-3.188,1.02-4.344,2.432c-0.397,0.486-1.136,0.719-1.751,0.996c-1.779,0.799-3.866,0.719-5.519,1.926
			c-0.211,0.154-0.719,0.152-0.94,0.003c-1.903-1.292-3.521,0.056-5.184,0.491c-0.379-0.168-0.738-0.478-1.061-0.443
			c-1.376,0.145-2.777,0.263-4.103,0.63c-2.382,0.661-4.72,1.484-7.069,2.261c-0.708,0.234-1.393,0.539-2.489,0.968
			c-0.345,0-1.153,0-1.959,0c-1.104,1.142-1.104,1.142-1.382,2.378c-3.933,0-7.873,0-11.751,0c-0.255-0.676-0.494-1.311-0.71-1.885
			c-1.015,0-1.822,0-2.577,0c-0.97,0.543-1.36,1.441-1.493,2.977c-0.574-0.841-0.782-1.301-1.127-1.61
			c-0.388-0.348-0.898-0.558-1.472-0.897c-1.651,0.133-3.5-0.344-5.229,0.494c-0.925,0.449-1.724,0.591-2.78,0.048
			c-1.628-0.837-3.427-0.823-5.271,0.13c-1.225-1.551-2.957-1.075-4.449-1.154c-1.299-0.837-2.5-1.855-3.934-1.867
			c-1.289-0.01-2.532-0.308-3.65-0.656c-1.273-0.395-2.478-0.343-3.713-0.357c-0.578-0.006-1.185,0.492-1.735,0.422
			c-1.9-0.245-3.769,0.767-5.677,0.057c-0.555-0.207-1.195-0.243-1.769-0.375c-1.156-0.266-2.507-0.484-3.648,0.355
			c-1.158-0.709-2.318-0.727-3.442,0.018c-0.63-0.344-1.224-0.666-1.702-0.927c-2.309-0.302-4.501,0.152-6.733-0.464
			c-1.579-0.438-3.377-0.021-5.072-0.104C3.746,80.966,2.117,80.739,0.485,80.577z"/>
		<path fill-rule="evenodd" clip-rule="evenodd" d="M0.485,80.577c1.632,0.162,3.26,0.389,4.896,0.467
			c1.695,0.082,3.494-0.334,5.072,0.104c2.232,0.616,4.425,0.162,6.733,0.464c0.478,0.261,1.072,0.583,1.702,0.927
			c1.124-0.744,2.284-0.727,3.442-0.018c1.141-0.84,2.492-0.621,3.648-0.355c0.574,0.132,1.214,0.168,1.769,0.375
			c1.909,0.71,3.777-0.302,5.677-0.057c0.55,0.07,1.157-0.428,1.735-0.422c1.235,0.015,2.44-0.037,3.713,0.357
			c1.118,0.349,2.361,0.646,3.65,0.656c1.435,0.012,2.635,1.03,3.934,1.867c1.493,0.079,3.225-0.396,4.449,1.154
			c1.845-0.953,3.644-0.967,5.271-0.13c1.056,0.543,1.855,0.401,2.78-0.048c1.729-0.838,3.578-0.361,5.229-0.494
			c0.574,0.34,1.084,0.55,1.472,0.897c0.345,0.31,0.553,0.77,1.127,1.61c0.133-1.535,0.522-2.434,1.493-2.977
			c0.755,0,1.562,0,2.577,0c0.216,0.574,0.456,1.209,0.71,1.885c3.878,0,7.818,0,11.751,0c0.279-1.236,0.279-1.236,1.382-2.378
			c0.806,0,1.614,0,1.959,0c1.096-0.429,1.781-0.733,2.489-0.968c2.349-0.776,4.687-1.6,7.069-2.261
			c1.326-0.367,2.727-0.485,4.103-0.63c0.323-0.034,0.681,0.275,1.061,0.443c1.663-0.436,3.281-1.783,5.184-0.491
			c0.221,0.149,0.729,0.151,0.94-0.003c1.653-1.207,3.739-1.127,5.519-1.926c0.615-0.277,1.354-0.51,1.751-0.996
			c1.155-1.412,2.96-1.54,4.344-2.432c1.36-0.875,2.857-1.32,4.318-1.899c0.487-0.192,1.158-0.179,1.468-0.516
			c1.387-1.509,3.387-1.669,5.111-2.346c2.646-1.038,5.293-2.057,7.886-3.23c2.073-0.938,4.154-1.978,6.613-1.63
			c0.414,0.617,0.842,1.254,1.432,2.134c0.102-0.674,0.166-1.101,0.234-1.56c0.547-0.205,1.092-0.502,1.671-0.6
			c0.625-0.105,1.282-0.024,1.813-0.024c1.182-0.89,2.195-1.772,3.619-2.12c1.797-0.438,3.061-1.918,4.692-2.719
			c1.138-0.559,2.252-1.167,3.652-1.896c0.086-0.186,0.337-0.728,0.677-1.463c0.537-0.146,1.267-0.32,1.979-0.549
			c0.353-0.112,0.69-0.297,1.007-0.493c1.547-0.956,3.053-1.985,4.638-2.873c0.972-0.544,2.06-0.88,3.552-1.497
			c0.489-0.028,1.471,0.055,2.441-0.438c2.011-1.021,4.225-0.288,6.414-0.58c0.554-0.561,1.178-1.193,1.851-1.875
			c1.409,0,2.863,0.076,4.304-0.025c1.129-0.079,2.227,0.098,3.181,0.547c1.986,0.936,4.139,0.996,6.18,1.53
			c1.544,0.403,3.073,0.187,4.59,0.57c1.434,0.361,2.997,0.193,4.5,0.296c1.647,0.111,3.122,0.67,4.531,1.943
			c1.738-0.057,3.694-0.129,5.359,0.925c1.136-0.321,2.27-0.515,3.291-0.965c0.981-0.432,1.966-0.555,2.965-0.435
			c2.479,0.297,4.839-0.745,7.212-0.494c0.752-0.646,0.856-1.781,2.015-1.861c2.377-0.096,2.377-0.096,3.195,0.307
			c1.4-0.635,2.656-1.342,4.001-1.777c1.579-0.51,3.003,0.422,4.398,0.957c1.037,0.398,1.904,1.238,2.845,1.88
			c0.673,0,1.324,0.068,1.955-0.016c0.989-0.132,1.828,0.23,2.643,0.669c1.244,0.669,2.432,1.309,3.857,0.35
			c0.328-0.221,0.931-0.032,1.477-0.032c0.078-1.458,0.751-2.542,1.576-3.2c0.782-0.244,1.283-0.4,1.981-0.617
			c0.904,0.948,1.897,0.332,3.015-0.438c0.277-0.544,0.617-1.213,1.101-2.165c1.059-0.149,2.35-0.333,3.078-0.437
			c2.966,0.811,4.361,2.803,6.167,4.489c2.324-0.587,4.205,0.72,6.355,1.868c0.616-0.188,1.389,0.082,2.296-0.332
			c0.938-0.429,2.236-0.275,3.326-0.085c0.695,0.122,1.296,0.773,2.28,1.407c1.074-0.134,2.515-0.383,3.964-0.472
			c1.451-0.089,2.911-0.02,4.331-0.02c0.72-0.492,1.455-1.406,2.1-1.347c1.221,0.111,1.61-1.16,2.756-1.153
			c0.901,0.005,1.819-0.613,2.707-1.009c1.052-0.467,2.083-0.947,3.285-0.868c0.938,0.062,1.638-0.259,2.234-1.106
			c0.607-0.861,1.694-0.928,2.731-0.805c0.749-1.303,1.053-2.881,2.647-3.419c0.643-0.217,1.289-0.424,2.357-0.774
			c1.339-2.027,3.67-2.617,6.469-1.986c0.861,0.317,1.844,0.681,2.895,1.068c1.613-2.703,4.136-2.172,6.403-2.188
			c0.352-0.351,0.637-0.638,0.764-0.763c3.397-1.011,5.625,0.93,7.989,2.698c1.645,0.046,3.397-0.224,5.142,0.788
			c0.906,1.354,1.885,2.904,2.96,4.387c0.506,0.697,1.253,1.148,2.186,1.139c0.475-0.004,0.951,0,1.375,0.086
			c1.419,0.438,2.246,1.5,2.612,2.765c0.754,2.606,3.011,3.78,4.812,5.393c0.578,0.517,1.237,0.94,1.956,1.479
			c0.99,0,2.118,0,2.851,0c1.967,0.699,2.584,2.352,3.57,3.204c0.909,0.274,1.545,0.466,2.438,0.735
			c-0.384-1.666,0.389-2.928,1.05-4.313c1.004-0.22,1.827-1.104,3.049-1.208c0.43-0.036,0.825-0.874,1.174-1.388
			c1.325-1.954,3.388-2.478,5.809-1.36c0.518-0.303,1.139-0.593,1.671-1c0.509-0.389,0.926-0.9,1.445-1.419c0.727,0,1.521,0,2.183,0
			c1.061-0.551,1.992-1.036,2.926-1.519c1.287,0.466,2.516,1.086,3.967,0.986c2.11-0.145,4.192-0.002,6.16,0.934
			c0.329,0.156,0.798,0.022,1.202,0.022c1.456,0,2.913-0.021,4.368,0.015c0.358,0.008,0.713,0.193,1.184,0.33
			c0.37-0.203,0.886-0.486,1.513-0.83c0.827,0,1.798,0,2.292,0c1.271-0.611,2.136-1.355,3.03-1.393
			c2.13-0.088,4.192-0.904,6.349-0.549c1.063,0.175,2.069,0.723,3.196,0.484c1.241,1.256,2.525,0.166,3.706-0.081
			c0.651-0.136,1.304-0.364,2-0.411c0.919-0.06,1.867,0.245,2.741-0.44c0.3-0.235,1.025-0.204,1.411-0.008
			c1.357,0.688,2.788,0.334,4.181,0.472c0.67,0.066,1.316,0.35,1.986,0.461c1.588,0.265,3.094-0.273,4.568-0.686
			c2.669-0.746,5.271-1.727,7.93-2.516c0.815-0.242,1.722-0.178,2.532-0.25c0.828-0.428,1.632-0.843,2.42-1.25
			c1.29-0.195,2.587-0.39,3.563-0.537c0.959-0.646,1.717-1.055,2.348-1.607c0.91-0.799,1.961-1.572,2.529-2.591
			c0.73-1.311,1.698-2.144,3.015-2.689c1.007-0.419,1.41-1.372,2.112-2.061c3.043-1.522,5.25-4.124,7.57-6.4
			c1.702-0.681,3.297-1.319,4.893-1.957c0.057,0.103,0.114,0.206,0.172,0.309c0.429-0.581,0.857-1.161,1.285-1.741
			c0.098,0.133,0.195,0.268,0.292,0.4c1.391-0.552,2.789-1.084,4.169-1.662c1.314-0.55,2.411-1.688,4.01-1.45
			c2.483-2.819,4.337-3.445,6.607-3.422c1.001-0.618,1.838-1.136,2.865-1.771c1.162-2.168,4.621-3.74,7.15-2.908
			c1.032,0.34,1.825,0.551,2.844-0.103c0.656-0.421,1.639-0.296,2.431-0.554c0.997-0.324,2.044-0.5,2.846-1.362
			c0.97-1.044,2.384-1.292,3.724-1.505c0.864-0.137,1.767-0.025,2.67-0.025c1.285-1.672,2.985-2.759,5.02-3.073
			c1.108-0.171,1.847-0.712,2.741-1.257c2.308-1.406,4.601-3.007,7.503-2.947c0.676,0.014,1.264-0.431,2.059-0.08
			c0.457,0.201,1.25-0.361,1.974-0.608c0.405,0.633,0.728,1.136,1.083,1.688c0.525-1.492,1.23-2.834,2.847-3.291
			c1.989,0,3.987-0.005,5.985,0.016c0.116,0,0.229,0.214,0.344,0.328c1.614-0.813,3.517-0.656,5.949,0.486
			c1.647-0.699,3.322-0.692,5.02-0.2c0.291,0.084,0.673,0.286,0.875,0.177c1.821-0.982,3.771-0.172,5.527-0.504
			c1.074,0.646,2.052,1.234,3.3,1.984c0.468,0,1.288,0.109,2.067-0.024c1.355-0.234,2.149,1.29,3.481,1.001
			c1.402,1.117,3.077,1.1,4.693,0.932c1.774-0.185,3.416,0.469,5.141,0.546c0.49,0.022,1.032,0.291,1.435,0.599
			c1.123,0.855,2.186,1.79,3.299,2.717c0.131-0.115,0.299-0.262,0.562-0.492c0.55,0.262,1.154,0.551,1.765,0.841
			c1.178-0.253,2.402-0.534,3.635-0.771c0.597-0.114,1.177,0.073,1.794-0.403c0.563-0.434,1.514,0.008,3.001,0.918
			c0.709-0.05,1.233-0.793,2.305-0.245c0.967,0.494,2.446,0.101,3.679-0.062c2.1-0.277,4.179-0.651,6.171,0.769
			c2.218-0.326,4.221,0.771,6.273,1.556c1.183,0.451,2.23,1.244,3.371,1.82c1.313,0.664,2.662,1.205,4.207,1.001
			c0.431-0.057,0.896,0.151,1.347,0.236c2.335,0.44,4.586,1.37,7.163,1.173c0.891,0.752,1.847,1.561,2.905,2.456
			c2.058-0.19,4.061,0.593,6.267,1.292c0.6-0.844,1.765-0.945,2.806-1.271c0.642-0.201,1.308-0.061,2.022-0.415
			c0.585-0.291,1.698,0.074,2.368,0.488c0.542,0.333,1.011,0.354,1.551,0.389c1.553,0.102,3.106,0.211,4.375,0.297
			c1.98,1.336,2.897,3.428,5.412,3.682c1.897,0.191,3.645,1.497,5.415,1.396c4.24,1.714,6.885,4.729,9.013,8.66
			c0.308,0.199,0.934,0.266,1.231,1.139c0.526,1.548,1.91,2.466,3.306,3.272c2.982,1.724,5.929,3.479,8.534,5.789
			c2.508,2.222,5.191,4.245,7.78,6.377c0.89,0.732,2.188,0.832,2.863,1.882c1.882,0.436,3.011,2.045,4.589,2.969
			c1.618,0.947,3.043,2.186,4.377,3.534c1.218,1.23,2.555,2.354,3.909,3.437c1.306,1.043,2.855,1.717,4.242,2.664
			c1.861,1.271,4.25,1.406,6.255,2.451c0.248,0.129,0.791,0.131,0.921-0.031c0.44-0.549,0.996-0.438,1.538-0.43
			c1.593,0.022,2.944-0.649,4.267-1.356c1.308-0.198,2.702-0.167,3.881-0.655c1.236-0.513,2.577-0.354,3.745-0.916
			c1.19-0.574,2.456-0.344,3.684-0.504c1.49-0.195,2.871-0.818,4.266-1.398c1.792-0.746,3.496-1.688,5.432-2.141
			c1.61-0.377,2.95-1.473,4.362-2.344c0.694-0.428,1.472-0.721,2.51-1.219c0.71-0.483,1.718-1.172,2.524-1.723
			c2.083-2.359,4.816-3.611,6.782-5.666c1.243,0,2.364,0,3.485,0c-0.02-0.072-0.039-0.145-0.059-0.218
			c1.274-0.427,2.522-0.981,3.83-1.249c1.49-0.305,2.894-0.906,4.438-1.072c0.734-0.079,1.392-0.885,2.103-1.375
			c0.625,0,1.269,0,2.011,0c0.271-0.398,0.566-0.833,1.089-1.603c0.943-0.132,2.236-0.312,3.341-0.464
			c0.802,0.436,1.396,0.76,2.012,1.095c0.964-0.362,1.788-1.21,2.962-0.982c0,37.861,0,75.723,0,113.584c-266,0-532,0-798,0
			C0.485,130.735,0.485,105.656,0.485,80.577z M342.766,67.864c0.131,0.068,0.262,0.137,0.393,0.205
			c0.553-0.689,1.105-1.381,1.7-2.123c1.518,0,3.032,0,4.342,0c0.852-0.889,1.569-1.635,2.183-2.275
			c0.964-0.072,1.719-0.129,2.455-0.184c-0.692-0.906-1.304-1.709-1.971-2.584c0-0.653,0-1.357,0-2.045
			c-1.774-0.29-1.88-2.717-3.324-2.637c-1.085-0.553-0.54-1.701-1.761-2.004c-0.694-0.172-1.165-1.246-1.971-2.188
			c-0.349,1.438-0.614,2.529-0.93,3.834c-0.251,0.144-0.71,0.407-1.114,0.64c0,1.059,0,2.088,0,2.979
			c0.721,0.298,1.334,0.551,1.851,0.765c0,1.201,0,2.165,0,3.114c-0.645,0.644-1.272,1.272-1.854,1.854
			C342.766,66.13,342.766,66.997,342.766,67.864z"/>
		<path fill-rule="evenodd" clip-rule="evenodd" fill="transparent" d="M0.485,155.814c266,0,532,0,798,0c0,0.161,0,0.323,0,0.485
			c-0.729,0-1.456,0-2.185,0c-264.544,0-529.087,0-793.631,0c-0.729,0-1.457,0.001-2.184-0.02
			C0.481,156.28,0.485,155.976,0.485,155.814z"/>
		<path fill-rule="evenodd" clip-rule="evenodd" fill="transparent" d="M342.766,67.864c0-0.867,0-1.734,0-2.649
			c0.581-0.581,1.209-1.21,1.854-1.854c0-0.949,0-1.913,0-3.114c-0.517-0.214-1.129-0.467-1.851-0.765c0-0.892,0-1.921,0-2.979
			c0.403-0.232,0.863-0.496,1.114-0.64c0.316-1.305,0.581-2.396,0.93-3.834c0.806,0.942,1.277,2.017,1.971,2.188
			c1.221,0.303,0.675,1.451,1.761,2.004c1.444-0.08,1.549,2.347,3.324,2.637c0,0.688,0,1.392,0,2.045
			c0.667,0.875,1.279,1.678,1.971,2.584c-0.736,0.055-1.491,0.111-2.455,0.184c-0.614,0.641-1.331,1.387-2.183,2.275
			c-1.31,0-2.824,0-4.342,0c-0.595,0.742-1.147,1.434-1.7,2.123C343.027,68.001,342.896,67.933,342.766,67.864z"/>
	</g>
</g>
</svg>
