<?xml version="1.0" encoding="utf-8"?>
<!-- Generator: Adobe Illustrator 16.0.0, SVG Export Plug-In . SVG Version: 6.00 Build 0)  -->
<!DOCTYPE svg PUBLIC "-//W3C//DTD SVG 1.1//EN" "http://www.w3.org/Graphics/SVG/1.1/DTD/svg11.dtd">
<svg version="1.1" id="Layer_1" xmlns="http://www.w3.org/2000/svg" xmlns:xlink="http://www.w3.org/1999/xlink" x="0px" y="0px"
	 width="410.984px" height="99.494px" viewBox="0 0 410.984 99.494" enable-background="new 0 0 410.984 99.494"
	 xml:space="preserve">
<g>
	<g>
		<path fill-rule="evenodd" clip-rule="evenodd" fill="transparent" d="M0.25,60.996c0-40.416,0-80.831,0-121.246
			c136.995,0,273.989,0,410.984,0c0,33.832,0,67.664,0,101.496c-0.923,0.254-1.813,0.375-2.792,0.08
			c-0.461-0.139-1.088,0.207-1.619,0.393c-0.303,0.104-0.543,0.398-0.848,0.487c-2.462,0.717-4.938,1.392-7.397,2.116
			c-0.423,0.125-0.813,0.4-1.184,0.654c-2.186,1.497-4.27,3.173-6.571,4.461c-1.794,1.003-3.816,1.658-5.805,2.234
			c-2.308,0.67-4.685,1.109-7.041,1.6c-0.844,0.176-1.764,0.432-2.568,0.264c-2.149-0.445-4.028-1.521-5.712-2.943
			c-1.396-1.181-2.8-2.358-4.266-3.449c-1.766-1.313-3.627-2.498-5.396-3.807c-1.303-0.963-2.419-2.217-3.804-3.021
			c-2.382-1.385-4.388-3.035-5.87-5.413c-0.977-1.566-2.457-2.64-4.41-3.022c-1.197-0.234-2.516-0.601-3.44-1.335
			c-2.249-1.785-4.735-1.831-7.265-1.282c-1.727,0.373-3.143-0.191-4.628-0.768c-0.605-0.235-1.175-0.605-1.799-0.75
			c-2.619-0.604-5.25-0.998-7.747-2.215c-1.686-0.822-3.744-0.939-5.659-1.205c-1.132-0.156-2.309,0.007-3.466,0.033
			c-1.182,0.028-2.368,0.147-3.543,0.072c-0.913-0.059-1.992-0.103-2.677-0.598c-1.372-0.99-2.848-1.156-4.432-1.386
			c-2.067-0.3-4.074-0.993-6.121-1.454c-0.993-0.223-2.017-0.322-3.031-0.438c-0.364-0.041-0.744,0.074-1.113,0.058
			c-2.438-0.112-4.878-0.226-7.315-0.372c-1.292-0.077-2.404,0.168-2.994,1.389c-0.437-0.123-0.788-0.314-1.136-0.307
			c-1.908,0.041-3.693,0.512-5.317,1.567c-0.542,0.352-1.202,0.518-1.769,0.837c-1.62,0.914-3.304,1.641-5.141,1.996
			c-0.227,0.044-0.406,0.288-0.628,0.396c-1.351,0.66-2.712,1.258-4.285,0.948c-1.151-0.226-2.2,0.131-2.987,0.929
			c-0.889,0.9-1.884,1.466-3.115,1.693c-0.357,0.066-0.694,0.272-1.026,0.442c-1.614,0.826-3.16,1.833-4.849,2.457
			c-3.114,1.151-5.572,3.222-8.037,5.302c-1.228,1.037-2.316,2.24-3.545,3.275c-0.62,0.523-1.368,0.98-2.135,1.227
			c-2.21,0.708-4.46,1.295-6.694,1.926c-1.398,0.396-2.756,0.783-4.283,0.514c-1.326-0.234-2.74-0.234-4.078-0.057
			c-1.736,0.23-3.406,0.305-5.169,0.065c-1.291-0.176-2.682,0.353-4.023,0.587c-0.404,0.07-0.795,0.215-1.193,0.321
			c-3.048,0.808-6.028-0.153-9.02-0.436c-1.604-0.151-2.867,0.413-4.22,0.97c-0.511,0.211-1.053,0.502-1.578,0.496
			c-1.409-0.014-4.643,2-5.127,3.311c-0.444,1.199-0.824,1.242-1.771,0.326c-0.462-0.447-1.021-1.006-1.595-1.086
			c-2.343-0.326-3.723-1.76-4.834-3.674c-0.309-0.533-0.873-1.182-1.401-1.268c-1.286-0.207-1.909-1.055-2.585-1.967
			c-0.335-0.452-0.764-1.106-1.208-1.156c-1.577-0.177-2.922-0.817-4.252-1.598c-0.296-0.173-0.741-0.198-1.095-0.146
			c-1.102,0.164-2.338,0.145-3.253,0.668c-1.173,0.671-2.177,0.523-3.391,0.371c-1.957-0.246-3.476,1.053-4.732,2.269
			c-0.875,0.849-1.855,1.36-2.86,1.817c-1.767,0.804-3.598,1.538-5.476,2.001c-1.538,0.379-3.231,0.612-4.763,0.357
			c-1.092-0.182-2.111-0.593-3.255-0.335c-0.302,0.068-0.698,0.021-0.967-0.126c-1.567-0.853-3.462-0.886-4.823-2.376
			c-1.076-1.177-2.342-0.814-3.424,0.336c-0.323,0.344-0.908,0.584-1.385,0.605c-0.885,0.043-1.413,0.41-1.947,1.105
			c-0.37,0.482-1.177,1.013-1.691,0.928c-1.533-0.252-3.215-0.487-4.479-1.293c-2.519-1.607-4.683,0.164-7.001,0.28
			c-0.033,0.001-0.06,0.061-0.097,0.075c-0.488,0.189-0.964,0.465-1.47,0.545c-1.474,0.229-2.992,0.244-4.432,0.596
			c-1.676,0.408-3.182-0.047-4.735-0.463c-0.873-0.234-1.748-0.476-2.637-0.627c-2.208-0.375-4.448-0.598-6.632-1.078
			c-1.812-0.396-3.544-0.941-5.225,0.349c-0.235,0.181-0.637,0.222-0.955,0.204c-3.561-0.195-6.313,1.857-9.236,3.367
			c-1.823,0.943-3.49,2.183-5.278,3.197c-1.097,0.622-2.292,1.07-3.548,1.645c-0.602-0.971-1.519-0.764-2.395-0.404
			c-3.73,1.532-7.555,2.887-11.135,4.716c-2.958,1.512-5.877,2.712-9.232,2.888c-3.358,0.176-6.581,0.969-9.428,2.904
			c-0.192,0.13-0.47,0.182-0.709,0.184c-1.458,0.016-2.916,0.016-4.374-0.004c-0.236-0.004-0.504-0.081-0.701-0.21
			c-1.54-1.008-1.535-1.015-2.518,0.001c-1.077-0.188-2.008-0.563-2.88-0.456c-1.284,0.157-2.524,0.386-3.789-0.037
			c-0.148-0.05-0.333,0.022-0.496,0.003c-1.181-0.144-2.479-0.031-3.516-0.499c-2.654-1.199-5.339-1.437-8.149-0.937
			c-0.243,0.043-0.498,0.058-0.743,0.035c-2.219-0.199-4.435-0.438-6.655-0.607C5.56,61.313,2.904,61.166,0.25,60.996z"/>
		<path fill-rule="evenodd" clip-rule="evenodd" d="M0.25,60.996c2.654,0.17,5.31,0.316,7.961,0.52
			c2.221,0.17,4.437,0.408,6.655,0.607c0.245,0.022,0.5,0.008,0.743-0.035c2.811-0.5,5.495-0.263,8.149,0.937
			c1.036,0.468,2.335,0.355,3.516,0.499c0.163,0.02,0.348-0.053,0.496-0.003c1.265,0.423,2.505,0.194,3.789,0.037
			c0.872-0.106,1.804,0.268,2.88,0.456c0.982-1.016,0.978-1.009,2.518-0.001c0.197,0.129,0.465,0.206,0.701,0.21
			c1.458,0.02,2.916,0.02,4.374,0.004c0.239-0.002,0.517-0.054,0.709-0.184c2.847-1.936,6.07-2.729,9.428-2.904
			c3.354-0.176,6.274-1.376,9.232-2.888c3.58-1.829,7.404-3.184,11.135-4.716c0.876-0.359,1.793-0.566,2.395,0.404
			c1.256-0.574,2.451-1.022,3.548-1.645c1.789-1.015,3.456-2.254,5.278-3.197c2.924-1.51,5.675-3.563,9.236-3.367
			c0.318,0.018,0.72-0.023,0.955-0.204c1.681-1.29,3.413-0.745,5.225-0.349c2.184,0.48,4.424,0.703,6.632,1.078
			c0.889,0.151,1.764,0.393,2.637,0.627c1.553,0.416,3.059,0.871,4.735,0.463c1.439-0.352,2.958-0.367,4.432-0.596
			c0.506-0.08,0.981-0.355,1.47-0.545c0.037-0.015,0.063-0.074,0.097-0.075c2.318-0.116,4.482-1.888,7.001-0.28
			c1.264,0.806,2.946,1.041,4.479,1.293c0.514,0.085,1.321-0.445,1.691-0.928c0.534-0.695,1.062-1.063,1.947-1.105
			c0.478-0.021,1.063-0.262,1.385-0.605c1.082-1.15,2.348-1.513,3.424-0.336c1.361,1.49,3.256,1.523,4.823,2.376
			c0.27,0.147,0.666,0.194,0.967,0.126c1.144-0.258,2.163,0.153,3.255,0.335c1.532,0.255,3.226,0.021,4.763-0.357
			c1.878-0.463,3.709-1.197,5.476-2.001c1.005-0.457,1.984-0.969,2.86-1.817c1.256-1.216,2.775-2.515,4.732-2.269
			c1.214,0.152,2.218,0.3,3.391-0.371c0.915-0.523,2.151-0.504,3.253-0.668c0.354-0.052,0.799-0.026,1.095,0.146
			c1.33,0.78,2.675,1.421,4.252,1.598c0.444,0.05,0.873,0.704,1.208,1.156c0.676,0.912,1.299,1.76,2.585,1.967
			c0.529,0.086,1.093,0.734,1.401,1.268c1.111,1.914,2.491,3.348,4.834,3.674c0.574,0.08,1.133,0.639,1.595,1.086
			c0.947,0.916,1.326,0.873,1.771-0.326c0.485-1.311,3.719-3.324,5.127-3.311c0.525,0.006,1.067-0.285,1.578-0.496
			c1.353-0.557,2.617-1.121,4.22-0.97c2.992,0.282,5.972,1.243,9.02,0.436c0.398-0.106,0.789-0.251,1.193-0.321
			c1.342-0.234,2.732-0.763,4.023-0.587c1.763,0.239,3.433,0.165,5.169-0.065c1.338-0.178,2.752-0.178,4.078,0.057
			c1.527,0.27,2.885-0.117,4.283-0.514c2.234-0.631,4.484-1.218,6.694-1.926c0.767-0.246,1.515-0.703,2.135-1.227
			c1.229-1.035,2.317-2.238,3.545-3.275c2.465-2.08,4.923-4.15,8.037-5.302c1.688-0.624,3.234-1.631,4.849-2.457
			c0.332-0.17,0.669-0.376,1.026-0.442c1.231-0.228,2.227-0.793,3.115-1.693c0.787-0.798,1.836-1.154,2.987-0.929
			c1.573,0.31,2.935-0.288,4.285-0.948c0.222-0.108,0.401-0.353,0.628-0.396c1.837-0.355,3.521-1.082,5.141-1.996
			c0.566-0.319,1.227-0.485,1.769-0.837c1.624-1.056,3.409-1.526,5.317-1.567c0.348-0.008,0.699,0.184,1.136,0.307
			c0.59-1.221,1.702-1.466,2.994-1.389c2.438,0.146,4.877,0.26,7.315,0.372c0.369,0.017,0.749-0.099,1.113-0.058
			c1.015,0.115,2.038,0.215,3.031,0.438c2.047,0.461,4.054,1.154,6.121,1.454c1.584,0.229,3.06,0.396,4.432,1.386
			c0.685,0.495,1.764,0.539,2.677,0.598c1.175,0.075,2.361-0.044,3.543-0.072c1.157-0.026,2.334-0.189,3.466-0.033
			c1.915,0.266,3.974,0.383,5.659,1.205c2.497,1.217,5.128,1.611,7.747,2.215c0.624,0.145,1.193,0.515,1.799,0.75
			c1.485,0.576,2.901,1.141,4.628,0.768c2.529-0.549,5.016-0.503,7.265,1.282c0.925,0.734,2.243,1.101,3.44,1.335
			c1.953,0.383,3.434,1.456,4.41,3.022c1.482,2.378,3.488,4.028,5.87,5.413c1.385,0.805,2.501,2.059,3.804,3.021
			c1.77,1.309,3.631,2.493,5.396,3.807c1.466,1.091,2.869,2.269,4.266,3.449c1.684,1.423,3.563,2.498,5.712,2.943
			c0.805,0.168,1.725-0.088,2.568-0.264c2.356-0.49,4.733-0.93,7.041-1.6c1.988-0.576,4.011-1.231,5.805-2.234
			c2.302-1.288,4.386-2.964,6.571-4.461c0.371-0.254,0.761-0.529,1.184-0.654c2.46-0.725,4.936-1.399,7.397-2.116
			c0.305-0.089,0.545-0.383,0.848-0.487c0.531-0.186,1.158-0.531,1.619-0.393c0.979,0.295,1.869,0.174,2.792-0.08
			c0,19.5,0,38.998,0,58.498c-0.75,0.006-1.5,0.016-2.249,0.016c-108.213,0-216.426,0-324.639-0.002
			c-28.032-0.001-56.064-0.01-84.096-0.014C0.25,86.828,0.25,73.912,0.25,60.996z M176.43,54.081c0.11,0.04,0.221,0.079,0.331,0.119
			c1.738-0.675,3.475-1.351,5.102-1.982c-0.49-2.678-2.528-3.913-4.153-5.649c-0.436,0.905-0.867,1.611-1.103,2.376
			c-0.11,0.356,0.021,0.97,0.281,1.224c0.893,0.869,0.69,1.641,0.067,2.531C176.681,53.091,176.599,53.616,176.43,54.081z"/>
		<path fill-rule="evenodd" clip-rule="evenodd" fill="transparent" d="M0.25,99.744c28.032,0.004,56.064,0.013,84.096,0.014
			c108.213,0.002,216.426,0.002,324.639,0.002c0.749,0,1.499-0.01,2.249-0.016c-0.042,0.083-0.079,0.235-0.125,0.238
			c-0.332,0.021-0.666,0.012-1,0.012c-136.244,0-272.49,0-408.735-0.011C1,99.983,0.625,99.827,0.25,99.744z"/>
		<path fill-rule="evenodd" clip-rule="evenodd" fill="transparent" d="M176.43,54.081c0.169-0.465,0.251-0.99,0.525-1.382
			c0.623-0.891,0.826-1.662-0.067-2.531c-0.26-0.254-0.391-0.867-0.281-1.224c0.236-0.765,0.667-1.471,1.103-2.376
			c1.625,1.736,3.663,2.972,4.153,5.649c-1.626,0.632-3.364,1.308-5.102,1.982C176.65,54.16,176.54,54.121,176.43,54.081z"/>
	</g>
</g>
</svg>
